<mxfile host="65bd71144e" scale="1" border="10">
    <diagram name="Page-1" id="N0otF0luT5muhK761ZJs">
        <mxGraphModel dx="572" dy="549" grid="1" gridSize="10" guides="1" tooltips="1" connect="1" arrows="1" fold="1" page="1" pageScale="1" pageWidth="827" pageHeight="1169" math="0" shadow="0">
            <root>
                <mxCell id="0"/>
                <mxCell id="1" parent="0"/>
                <mxCell id="28" style="edgeStyle=none;html=1;exitX=0;exitY=0.25;exitDx=0;exitDy=0;entryX=1;entryY=0.556;entryDx=0;entryDy=0;entryPerimeter=0;" edge="1" parent="1" source="25" target="FPuJ7j8S0xlXrzap1A7H-11">
                    <mxGeometry relative="1" as="geometry">
                        <mxPoint x="240" y="230" as="targetPoint"/>
                    </mxGeometry>
                </mxCell>
                <mxCell id="29" value="disable" style="edgeLabel;html=1;align=center;verticalAlign=middle;resizable=0;points=[];" vertex="1" connectable="0" parent="28">
                    <mxGeometry x="-0.0134" y="-1" relative="1" as="geometry">
                        <mxPoint y="1" as="offset"/>
                    </mxGeometry>
                </mxCell>
                <mxCell id="25" value="RUNNING" style="html=1;align=center;verticalAlign=top;rounded=1;absoluteArcSize=1;arcSize=10;dashed=0;whiteSpace=wrap;" vertex="1" parent="1">
                    <mxGeometry x="320" y="190" width="160" height="200" as="geometry"/>
                </mxCell>
                <mxCell id="FPuJ7j8S0xlXrzap1A7H-65" style="edgeStyle=orthogonalEdgeStyle;rounded=0;orthogonalLoop=1;jettySize=auto;html=1;entryX=1;entryY=0.306;entryDx=0;entryDy=0;entryPerimeter=0;exitX=0.25;exitY=1;exitDx=0;exitDy=0;" parent="1" source="FPuJ7j8S0xlXrzap1A7H-10" target="FPuJ7j8S0xlXrzap1A7H-11" edge="1">
                    <mxGeometry relative="1" as="geometry">
                        <Array as="points">
                            <mxPoint x="370" y="150"/>
                        </Array>
                        <mxPoint x="360" y="110" as="sourcePoint"/>
                        <mxPoint x="259.9999999999998" y="149.9999999999999" as="targetPoint"/>
                    </mxGeometry>
                </mxCell>
                <mxCell id="FPuJ7j8S0xlXrzap1A7H-67" value="error&lt;div&gt;cleared&lt;/div&gt;" style="edgeLabel;html=1;align=center;verticalAlign=middle;resizable=0;points=[];" parent="FPuJ7j8S0xlXrzap1A7H-65" vertex="1" connectable="0">
                    <mxGeometry x="0.3438" relative="1" as="geometry">
                        <mxPoint x="-19" as="offset"/>
                    </mxGeometry>
                </mxCell>
                <mxCell id="30" style="edgeStyle=none;html=1;exitX=0;exitY=0.5;exitDx=0;exitDy=0;entryX=0;entryY=0.5;entryDx=0;entryDy=0;" edge="1" parent="1" target="FPuJ7j8S0xlXrzap1A7H-10">
                    <mxGeometry relative="1" as="geometry">
                        <mxPoint x="200" y="60.05555555555554" as="sourcePoint"/>
                    </mxGeometry>
                </mxCell>
                <mxCell id="31" value="(fatal)&lt;div&gt;error&lt;/div&gt;" style="edgeLabel;html=1;align=center;verticalAlign=middle;resizable=0;points=[];" vertex="1" connectable="0" parent="30">
                    <mxGeometry x="0.0714" relative="1" as="geometry">
                        <mxPoint x="-15" as="offset"/>
                    </mxGeometry>
                </mxCell>
                <mxCell id="FPuJ7j8S0xlXrzap1A7H-10" value="ERROR" style="html=1;align=center;verticalAlign=top;rounded=1;absoluteArcSize=1;arcSize=10;dashed=0;whiteSpace=wrap;" parent="1" vertex="1">
                    <mxGeometry x="340" y="40" width="120" height="40" as="geometry"/>
                </mxCell>
                <mxCell id="FPuJ7j8S0xlXrzap1A7H-11" value="READY" style="html=1;align=center;verticalAlign=top;rounded=1;absoluteArcSize=1;arcSize=10;dashed=0;whiteSpace=wrap;" parent="1" vertex="1">
                    <mxGeometry y="40" width="200" height="360" as="geometry"/>
                </mxCell>
                <mxCell id="FPuJ7j8S0xlXrzap1A7H-55" value="" style="group" parent="1" vertex="1" connectable="0">
                    <mxGeometry x="20" y="80" width="160" height="310" as="geometry"/>
                </mxCell>
                <mxCell id="FPuJ7j8S0xlXrzap1A7H-28" style="edgeStyle=orthogonalEdgeStyle;rounded=0;orthogonalLoop=1;jettySize=auto;html=1;exitX=0.75;exitY=0;exitDx=0;exitDy=0;entryX=0.75;entryY=1;entryDx=0;entryDy=0;" parent="FPuJ7j8S0xlXrzap1A7H-55" source="FPuJ7j8S0xlXrzap1A7H-17" target="FPuJ7j8S0xlXrzap1A7H-12" edge="1">
                    <mxGeometry relative="1" as="geometry"/>
                </mxCell>
                <mxCell id="FPuJ7j8S0xlXrzap1A7H-30" value="!brake ||&lt;div&gt;acccelerator&lt;/div&gt;" style="edgeLabel;html=1;align=center;verticalAlign=middle;resizable=0;points=[];" parent="FPuJ7j8S0xlXrzap1A7H-28" vertex="1" connectable="0">
                    <mxGeometry x="-0.1" y="-1" relative="1" as="geometry">
                        <mxPoint as="offset"/>
                    </mxGeometry>
                </mxCell>
                <mxCell id="FPuJ7j8S0xlXrzap1A7H-17" value="RTD_STEADY" style="html=1;align=center;verticalAlign=top;rounded=1;absoluteArcSize=1;arcSize=10;dashed=0;whiteSpace=wrap;" parent="FPuJ7j8S0xlXrzap1A7H-55" vertex="1">
                    <mxGeometry y="110" width="160" height="200" as="geometry"/>
                </mxCell>
                <mxCell id="FPuJ7j8S0xlXrzap1A7H-27" style="edgeStyle=orthogonalEdgeStyle;rounded=0;orthogonalLoop=1;jettySize=auto;html=1;exitX=0.25;exitY=1;exitDx=0;exitDy=0;entryX=0.25;entryY=0;entryDx=0;entryDy=0;" parent="FPuJ7j8S0xlXrzap1A7H-55" source="FPuJ7j8S0xlXrzap1A7H-12" target="FPuJ7j8S0xlXrzap1A7H-17" edge="1">
                    <mxGeometry relative="1" as="geometry"/>
                </mxCell>
                <mxCell id="FPuJ7j8S0xlXrzap1A7H-29" value="brake &amp;amp;&amp;amp;&lt;div&gt;!accelerator&lt;/div&gt;" style="edgeLabel;html=1;align=center;verticalAlign=middle;resizable=0;points=[];" parent="FPuJ7j8S0xlXrzap1A7H-27" vertex="1" connectable="0">
                    <mxGeometry x="0.05" y="-2" relative="1" as="geometry">
                        <mxPoint as="offset"/>
                    </mxGeometry>
                </mxCell>
                <mxCell id="FPuJ7j8S0xlXrzap1A7H-12" value="RTD_BLINK" style="html=1;align=center;verticalAlign=top;rounded=1;absoluteArcSize=1;arcSize=10;dashed=0;whiteSpace=wrap;" parent="FPuJ7j8S0xlXrzap1A7H-55" vertex="1">
                    <mxGeometry y="30" width="160" height="40" as="geometry"/>
                </mxCell>
                <mxCell id="FPuJ7j8S0xlXrzap1A7H-52" value="" style="group" parent="FPuJ7j8S0xlXrzap1A7H-55" vertex="1" connectable="0">
                    <mxGeometry x="20" y="150" width="120" height="150" as="geometry"/>
                </mxCell>
                <mxCell id="FPuJ7j8S0xlXrzap1A7H-47" style="edgeStyle=orthogonalEdgeStyle;rounded=0;orthogonalLoop=1;jettySize=auto;html=1;exitX=0.5;exitY=1;exitDx=0;exitDy=0;entryX=0.5;entryY=0;entryDx=0;entryDy=0;" parent="FPuJ7j8S0xlXrzap1A7H-52" source="FPuJ7j8S0xlXrzap1A7H-37" target="FPuJ7j8S0xlXrzap1A7H-13" edge="1">
                    <mxGeometry relative="1" as="geometry"/>
                </mxCell>
                <mxCell id="FPuJ7j8S0xlXrzap1A7H-37" value="" style="shape=ellipse;html=1;fillColor=strokeColor;fontSize=18;fontColor=#ffffff;" parent="FPuJ7j8S0xlXrzap1A7H-52" vertex="1">
                    <mxGeometry x="55" width="10" height="10" as="geometry"/>
                </mxCell>
                <mxCell id="FPuJ7j8S0xlXrzap1A7H-48" value="" style="edgeStyle=orthogonalEdgeStyle;rounded=0;orthogonalLoop=1;jettySize=auto;html=1;" parent="FPuJ7j8S0xlXrzap1A7H-52" source="FPuJ7j8S0xlXrzap1A7H-13" target="FPuJ7j8S0xlXrzap1A7H-14" edge="1">
                    <mxGeometry relative="1" as="geometry"/>
                </mxCell>
                <mxCell id="FPuJ7j8S0xlXrzap1A7H-51" value="RTD" style="edgeLabel;html=1;align=center;verticalAlign=middle;resizable=0;points=[];" parent="FPuJ7j8S0xlXrzap1A7H-48" vertex="1" connectable="0">
                    <mxGeometry x="0.0339" relative="1" as="geometry">
                        <mxPoint as="offset"/>
                    </mxGeometry>
                </mxCell>
                <mxCell id="FPuJ7j8S0xlXrzap1A7H-13" value="RTD_READY" style="html=1;align=center;verticalAlign=top;rounded=1;absoluteArcSize=1;arcSize=10;dashed=0;whiteSpace=wrap;" parent="FPuJ7j8S0xlXrzap1A7H-52" vertex="1">
                    <mxGeometry y="30" width="120" height="40" as="geometry"/>
                </mxCell>
                <mxCell id="FPuJ7j8S0xlXrzap1A7H-14" value="RTD_SOUND" style="html=1;align=center;verticalAlign=top;rounded=1;absoluteArcSize=1;arcSize=10;dashed=0;whiteSpace=wrap;" parent="FPuJ7j8S0xlXrzap1A7H-52" vertex="1">
                    <mxGeometry y="110" width="120" height="40" as="geometry"/>
                </mxCell>
                <mxCell id="FPuJ7j8S0xlXrzap1A7H-54" style="edgeStyle=orthogonalEdgeStyle;rounded=0;orthogonalLoop=1;jettySize=auto;html=1;exitX=0.5;exitY=1;exitDx=0;exitDy=0;entryX=0.5;entryY=0;entryDx=0;entryDy=0;" parent="FPuJ7j8S0xlXrzap1A7H-55" source="FPuJ7j8S0xlXrzap1A7H-53" target="FPuJ7j8S0xlXrzap1A7H-12" edge="1">
                    <mxGeometry relative="1" as="geometry"/>
                </mxCell>
                <mxCell id="FPuJ7j8S0xlXrzap1A7H-53" value="" style="shape=ellipse;html=1;fillColor=strokeColor;fontSize=18;fontColor=#ffffff;" parent="FPuJ7j8S0xlXrzap1A7H-55" vertex="1">
                    <mxGeometry x="75" width="10" height="10" as="geometry"/>
                </mxCell>
                <mxCell id="FPuJ7j8S0xlXrzap1A7H-57" style="edgeStyle=orthogonalEdgeStyle;rounded=0;orthogonalLoop=1;jettySize=auto;html=1;exitX=0.5;exitY=1;exitDx=0;exitDy=0;entryX=0.5;entryY=0;entryDx=0;entryDy=0;" parent="1" source="FPuJ7j8S0xlXrzap1A7H-56" target="FPuJ7j8S0xlXrzap1A7H-11" edge="1">
                    <mxGeometry relative="1" as="geometry"/>
                </mxCell>
                <mxCell id="FPuJ7j8S0xlXrzap1A7H-56" value="" style="shape=ellipse;html=1;fillColor=strokeColor;fontSize=18;fontColor=#ffffff;" parent="1" vertex="1">
                    <mxGeometry x="95" y="10" width="10" height="10" as="geometry"/>
                </mxCell>
                <mxCell id="24" value="" style="group" vertex="1" connectable="0" parent="1">
                    <mxGeometry x="340" y="230" width="120" height="150" as="geometry"/>
                </mxCell>
                <mxCell id="10" style="edgeStyle=orthogonalEdgeStyle;rounded=0;orthogonalLoop=1;jettySize=auto;html=1;exitX=0.5;exitY=1;exitDx=0;exitDy=0;entryX=0.5;entryY=0;entryDx=0;entryDy=0;" edge="1" parent="24" source="11" target="14">
                    <mxGeometry relative="1" as="geometry"/>
                </mxCell>
                <mxCell id="11" value="" style="shape=ellipse;html=1;fillColor=strokeColor;fontSize=18;fontColor=#ffffff;" vertex="1" parent="24">
                    <mxGeometry x="55" width="10" height="10" as="geometry"/>
                </mxCell>
                <mxCell id="19" style="edgeStyle=none;html=1;exitX=0.25;exitY=1;exitDx=0;exitDy=0;entryX=0.25;entryY=0;entryDx=0;entryDy=0;" edge="1" parent="24" source="14" target="15">
                    <mxGeometry relative="1" as="geometry"/>
                </mxCell>
                <mxCell id="21" value="error" style="edgeLabel;html=1;align=center;verticalAlign=middle;resizable=0;points=[];" vertex="1" connectable="0" parent="19">
                    <mxGeometry x="-0.1214" relative="1" as="geometry">
                        <mxPoint as="offset"/>
                    </mxGeometry>
                </mxCell>
                <mxCell id="14" value="RUNNING_OK" style="html=1;align=center;verticalAlign=top;rounded=1;absoluteArcSize=1;arcSize=10;dashed=0;whiteSpace=wrap;" vertex="1" parent="24">
                    <mxGeometry y="30" width="120" height="40" as="geometry"/>
                </mxCell>
                <mxCell id="20" style="edgeStyle=none;html=1;exitX=0.75;exitY=0;exitDx=0;exitDy=0;entryX=0.75;entryY=1;entryDx=0;entryDy=0;" edge="1" parent="24" source="15" target="14">
                    <mxGeometry relative="1" as="geometry"/>
                </mxCell>
                <mxCell id="23" value="error&lt;div&gt;cleared&lt;/div&gt;" style="edgeLabel;html=1;align=center;verticalAlign=middle;resizable=0;points=[];" vertex="1" connectable="0" parent="20">
                    <mxGeometry x="-0.1357" relative="1" as="geometry">
                        <mxPoint y="-3" as="offset"/>
                    </mxGeometry>
                </mxCell>
                <mxCell id="15" value="RUNNING_ERROR" style="html=1;align=center;verticalAlign=top;rounded=1;absoluteArcSize=1;arcSize=10;dashed=0;whiteSpace=wrap;" vertex="1" parent="24">
                    <mxGeometry y="110" width="120" height="40" as="geometry"/>
                </mxCell>
                <mxCell id="26" style="edgeStyle=none;html=1;exitX=1;exitY=0.5;exitDx=0;exitDy=0;entryX=-0.015;entryY=0.851;entryDx=0;entryDy=0;entryPerimeter=0;" edge="1" parent="1" source="FPuJ7j8S0xlXrzap1A7H-14" target="25">
                    <mxGeometry relative="1" as="geometry"/>
                </mxCell>
                <mxCell id="27" value="RTD&lt;div&gt;finished&lt;/div&gt;" style="edgeLabel;html=1;align=center;verticalAlign=middle;resizable=0;points=[];" vertex="1" connectable="0" parent="26">
                    <mxGeometry x="0.0253" y="2" relative="1" as="geometry">
                        <mxPoint x="19" y="2" as="offset"/>
                    </mxGeometry>
                </mxCell>
                <mxCell id="32" style="edgeStyle=none;html=1;exitX=0.689;exitY=0;exitDx=0;exitDy=0;entryX=0.75;entryY=1;entryDx=0;entryDy=0;exitPerimeter=0;" edge="1" parent="1" source="25" target="FPuJ7j8S0xlXrzap1A7H-10">
                    <mxGeometry relative="1" as="geometry"/>
                </mxCell>
                <mxCell id="33" value="fatal&lt;div&gt;error&lt;/div&gt;" style="edgeLabel;html=1;align=center;verticalAlign=middle;resizable=0;points=[];" vertex="1" connectable="0" parent="32">
                    <mxGeometry x="-0.2784" relative="1" as="geometry">
                        <mxPoint y="-1" as="offset"/>
                    </mxGeometry>
                </mxCell>
            </root>
        </mxGraphModel>
    </diagram>
</mxfile>